<?xml version="1.0" encoding="UTF-8"?>
<svg width="144px" height="31px" viewBox="0 0 144 31" version="1.1" xmlns="http://www.w3.org/2000/svg" xmlns:xlink="http://www.w3.org/1999/xlink">
    <!-- Generator: Sketch 49.3 (51167) - http://www.bohemiancoding.com/sketch -->
    <title>Group 3 Copy</title>
    <desc>Created with Sketch.</desc>
    <defs>
        <linearGradient x1="66.1301719%" y1="0%" x2="50%" y2="100%" id="linearGradient-1">
            <stop stop-color="#A2F8B8" offset="0%"></stop>
            <stop stop-color="#11C39F" offset="100%"></stop>
        </linearGradient>
    </defs>
    <g id="Symbols" stroke="none" stroke-width="1" fill="none" fill-rule="evenodd">
        <g id="header-dark" transform="translate(-60.000000, -15.000000)">
            <g id="Group-3-Copy" transform="translate(60.000000, 15.000000)">
                <g id="Group">
                    <circle id="Oval" fill="url(#linearGradient-1)" cx="15.5" cy="15.5" r="15.5"></circle>
                    <path d="M12.8251429,14.8445714 C12.8015237,14.7973331 12.8015237,14.7589525 12.8251429,14.7294286 C12.848762,14.6999046 12.8841902,14.6851429 12.9314286,14.6851429 L18.0685714,14.6851429 C18.1158098,14.6851429 18.151238,14.6999046 18.1748571,14.7294286 C18.1984763,14.7589525 18.1984763,14.7973331 18.1748571,14.8445714 L15.5708571,21.7885714 C15.547238,21.8358098 15.5236192,21.8594286 15.5,21.8594286 C15.4763808,21.8594286 15.452762,21.8358098 15.4291429,21.7885714 L14.1182857,18.3165714 C13.5868545,16.8876119 13.1558112,15.7302901 12.8251429,14.8445714 Z M7.88285714,14.8091429 C7.84742839,14.7737141 7.83561899,14.7441906 7.84742857,14.7205714 C7.85923815,14.6969523 7.88876167,14.6851429 7.936,14.6851429 L12.028,14.6851429 C12.0752383,14.6851429 12.1254283,14.6999046 12.1785714,14.7294286 C12.2317146,14.7589525 12.2641904,14.7973331 12.276,14.8445714 L14.9685714,21.9657143 C15.0040002,22.0838101 15.0187619,22.1458095 15.0128571,22.1517143 C15.0069524,22.1576191 14.9567624,22.1192385 14.8622857,22.0365714 L11.3902857,18.4405714 C9.66608662,16.669134 8.49695545,15.4586699 7.88285714,14.8091429 Z M18.7062857,14.88 C18.7299049,14.7973329 18.7623807,14.7412382 18.8037143,14.7117143 C18.8450478,14.6821903 18.9070472,14.6674286 18.9897143,14.6674286 L23.1348571,14.6674286 C23.1702859,14.6674286 23.188,14.6821903 23.188,14.7117143 C23.188,14.7412382 23.1702859,14.7737141 23.1348571,14.8091429 L16.12,22.0365714 C16.0373329,22.1192385 15.9930476,22.1576191 15.9871429,22.1517143 C15.9812381,22.1458095 15.9959998,22.0897148 16.0314286,21.9834286 L17.5725714,17.9091429 C18.0331452,16.6809462 18.4110461,15.6712421 18.7062857,14.88 Z M18.0331429,13.9942857 C18.056762,14.041524 18.0597144,14.0799046 18.042,14.1094286 C18.0242856,14.1389525 17.9918098,14.1537143 17.9445714,14.1537143 L13.0554286,14.1537143 C13.0081902,14.1537143 12.9757144,14.1389525 12.958,14.1094286 C12.9402856,14.0799046 12.943238,14.041524 12.9668571,13.9942857 L15.3937143,10.3451429 C15.429143,10.2979045 15.4645713,10.2742857 15.5,10.2742857 C15.5354287,10.2742857 15.570857,10.2979045 15.6062857,10.3451429 C16.1140978,11.1245753 16.9230421,12.3409441 18.0331429,13.9942857 Z M10.3451429,10.1325714 L10.3451429,10.1502857 C10.368762,10.1030474 10.3982855,10.0823809 10.4337143,10.0882857 C10.469143,10.0941905 10.4927618,10.1207617 10.5045714,10.168 L11.9571429,13.9942857 C11.9689524,14.041524 11.9630477,14.0799046 11.9394286,14.1094286 C11.9158094,14.1389525 11.8803812,14.1537143 11.8331429,14.1537143 L7.86514286,14.1537143 C7.80609494,14.1537143 7.77066673,14.1389525 7.75885714,14.1094286 C7.74704756,14.0799046 7.75295226,14.0474287 7.77657143,14.012 L9.052,12.0811429 C9.73695581,11.0537091 10.1679991,10.4041918 10.3451429,10.1325714 Z M23.2234286,14.012 C23.2470477,14.0474287 23.2529524,14.0799046 23.2411429,14.1094286 C23.2293333,14.1389525 23.1939051,14.1537143 23.1348571,14.1537143 L19.1668571,14.1537143 C19.1196188,14.1537143 19.0841906,14.1389525 19.0605714,14.1094286 C19.0369523,14.0799046 19.0310476,14.041524 19.0428571,13.9942857 L20.4954286,10.168 C20.5072382,10.1207617 20.530857,10.0941905 20.5662857,10.0882857 C20.6017145,10.0823809 20.6341903,10.1030474 20.6637143,10.1502857 C20.6932382,10.197524 21.5464678,11.4847493 23.2234286,14.012 Z M19.9285714,9.74285714 C19.9758098,9.74285714 20.011238,9.7576189 20.0348571,9.78714286 C20.0584763,9.81666681 20.0584763,9.85504738 20.0348571,9.90228571 L18.6177143,13.6931429 C18.5940951,13.7403812 18.567524,13.7669524 18.538,13.7728571 C18.508476,13.7787619 18.4760002,13.7580955 18.4405714,13.7108571 L15.9074286,9.88457143 C15.8838094,9.84914268 15.8779047,9.81666681 15.8897143,9.78714286 C15.9015239,9.7576189 15.9369521,9.74285714 15.996,9.74285714 L19.9285714,9.74285714 Z M15.004,9.74285714 C15.0512383,9.74285714 15.0837142,9.7576189 15.1014286,9.78714286 C15.1191429,9.81666681 15.1161906,9.85504738 15.0925714,9.90228571 L12.5594286,13.7108571 C12.5239998,13.7580955 12.491524,13.7787619 12.462,13.7728571 C12.432476,13.7669524 12.4059049,13.7403812 12.3822857,13.6931429 L10.9651429,9.92 C10.9415237,9.86095209 10.9415237,9.81666681 10.9651429,9.78714286 C10.988762,9.7576189 11.0241902,9.74285714 11.0714286,9.74285714 L15.004,9.74285714 Z" id="" fill="#FFFFFF"></path>
                </g>
                <g id="Group-2" transform="translate(39.000000, 4.000000)">
                    <path d="M2.857,9.012375 L8.164,9.012375 L8.164,11.25 L0.015,11.25 L0.015,1.0125 L7.9755,1.0125 L7.9755,3.250125 L2.857,3.250125 L2.857,4.975875 L7.3665,4.975875 L7.3665,7.140375 L2.857,7.140375 L2.857,9.012375 Z M17.357,11.25 L16.5595,9.261 L12.2675,9.261 L11.47,11.25 L8.541,11.25 L13.0215,1.0125 L15.849,1.0125 L20.344,11.25 L17.357,11.25 Z M13.1085,7.12575 L15.7185,7.12575 L14.4135,3.84975 L13.1085,7.12575 Z M24.723,11.45475 C23.0555,11.45475 21.4025,11.001375 20.4455,10.328625 L21.388,8.193375 C22.287,8.793 23.563,9.2025 24.7375,9.2025 C25.9265,9.2025 26.3905,8.866125 26.3905,8.368875 C26.3905,6.7455 20.6195,7.930125 20.6195,4.127625 C20.6195,2.2995 22.0985,0.80775 25.1145,0.80775 C26.434,0.80775 27.797,1.114875 28.7975,1.699875 L27.913,3.84975 C26.9415,3.32325 25.9845,3.06 25.1,3.06 C23.8965,3.06 23.4615,3.4695 23.4615,3.981375 C23.4615,5.54625 29.218,4.37625 29.218,8.1495 C29.218,9.93375 27.739,11.45475 24.723,11.45475 Z M39.6435,1.0125 L35.7575,7.579125 L35.7575,11.25 L32.8865,11.25 L32.8865,7.53525 L29.015,1.0125 L32.0455,1.0125 L34.4525,5.07825 L36.8595,1.0125 L39.6435,1.0125 Z M40.325,11.25 L40.325,1.0125 L45.1245,1.0125 C48.4885,1.0125 50.794,2.986875 50.794,6.13125 C50.794,9.275625 48.4885,11.25 45.1245,11.25 L40.325,11.25 Z M43.196,8.93925 L45.0085,8.93925 C46.734,8.93925 47.894,7.900875 47.894,6.13125 C47.894,4.361625 46.734,3.32325 45.0085,3.32325 L43.196,3.32325 L43.196,8.93925 Z M55.144,9.012375 L60.451,9.012375 L60.451,11.25 L52.302,11.25 L52.302,1.0125 L60.2625,1.0125 L60.2625,3.250125 L55.144,3.250125 L55.144,4.975875 L59.6535,4.975875 L59.6535,7.140375 L55.144,7.140375 L55.144,9.012375 Z M69.354,1.0125 L72.196,1.0125 L67.846,11.25 L65.0185,11.25 L60.683,1.0125 L63.786,1.0125 L66.541,7.6815 L69.354,1.0125 Z" id="EasyDEV" fill="#FFFFFF"></path>
                    <path d="M3.12692308,17.6625 C4.8,17.6625 6.04923077,18.8775 6.04923077,20.66625 C6.04923077,22.46625 4.8,23.68125 3.12692308,23.68125 C2.19,23.68125 1.38692308,23.27625 0.896153846,22.51125 L0.896153846,25.8075 L0.104230769,25.8075 L0.104230769,17.7075 L0.862692308,17.7075 L0.862692308,18.8775 C1.34230769,18.09 2.15653846,17.6625 3.12692308,17.6625 Z M3.07115385,22.9725 C4.30923077,22.9725 5.25730769,22.05 5.25730769,20.66625 C5.25730769,19.29375 4.30923077,18.36 3.07115385,18.36 C1.82192308,18.36 0.885,19.29375 0.885,20.66625 C0.885,22.05 1.82192308,22.9725 3.07115385,22.9725 Z M8.425,18.86625 C8.79307692,18.07875 9.54038462,17.6625 10.6223077,17.6625 L10.6223077,18.43875 C10.5553846,18.43875 10.4884615,18.4275 10.4326923,18.4275 C9.20576923,18.4275 8.45846154,19.215 8.45846154,20.61 L8.45846154,23.625 L7.66653846,23.625 L7.66653846,17.7075 L8.425,17.7075 L8.425,18.86625 Z M14.3923077,23.68125 C12.6746154,23.68125 11.4030769,22.42125 11.4030769,20.66625 C11.4030769,18.91125 12.6746154,17.6625 14.3923077,17.6625 C16.11,17.6625 17.3703846,18.91125 17.3703846,20.66625 C17.3703846,22.42125 16.11,23.68125 14.3923077,23.68125 Z M14.3923077,22.9725 C15.6415385,22.9725 16.5673077,22.05 16.5673077,20.66625 C16.5673077,19.2825 15.6415385,18.36 14.3923077,18.36 C13.1430769,18.36 12.2061538,19.2825 12.2061538,20.66625 C12.2061538,22.05 13.1430769,22.9725 14.3923077,22.9725 Z M20.9284615,15.89625 C20.2480769,15.89625 19.8911538,16.27875 19.8911538,17.01 L19.8911538,17.7075 L21.6980769,17.7075 L21.6980769,18.3825 L19.9134615,18.3825 L19.9134615,23.625 L19.1215385,23.625 L19.1215385,18.3825 L18.0730769,18.3825 L18.0730769,17.7075 L19.1215385,17.7075 L19.1215385,16.97625 C19.1215385,15.91875 19.7461538,15.22125 20.895,15.22125 C21.33,15.22125 21.7761538,15.345 22.0661538,15.5925 L21.7984615,16.18875 C21.5753846,15.9975 21.2630769,15.89625 20.9284615,15.89625 Z M27.7880769,20.66625 C27.7880769,20.73375 27.7769231,20.82375 27.7769231,20.91375 L22.8692308,20.91375 C22.9584615,22.15125 23.8953846,22.9725 25.1780769,22.9725 C25.8919231,22.9725 26.5276923,22.71375 26.9738462,22.19625 L27.42,22.71375 C26.8957692,23.34375 26.0815385,23.68125 25.1557692,23.68125 C23.3265385,23.68125 22.0773077,22.42125 22.0773077,20.66625 C22.0773077,18.91125 23.2930769,17.6625 24.9438462,17.6625 C26.5946154,17.6625 27.7880769,18.88875 27.7880769,20.66625 Z M24.9438462,18.34875 C23.8061538,18.34875 22.9696154,19.15875 22.8692308,20.3175 L27.0296154,20.3175 C26.9292308,19.15875 26.0926923,18.34875 24.9438462,18.34875 Z M30.9780769,23.68125 C30.0076923,23.68125 29.0707692,23.36625 28.5911538,22.95 L28.9480769,22.32 C29.4165385,22.69125 30.2084615,22.98375 31.0338462,22.98375 C32.1492308,22.98375 32.6065385,22.60125 32.6065385,22.01625 C32.6065385,20.475 28.8030769,21.69 28.8030769,19.35 C28.8030769,18.3825 29.6284615,17.6625 31.1230769,17.6625 C31.8815385,17.6625 32.7069231,17.87625 33.1976923,18.21375 L32.8519231,18.855 C32.3388462,18.495 31.7253846,18.34875 31.1230769,18.34875 C30.0634615,18.34875 29.595,18.765 29.595,19.3275 C29.595,20.925 33.3984615,19.72125 33.3984615,21.99375 C33.3984615,23.0175 32.5061538,23.68125 30.9780769,23.68125 Z M36.4323077,23.68125 C35.4619231,23.68125 34.525,23.36625 34.0453846,22.95 L34.4023077,22.32 C34.8707692,22.69125 35.6626923,22.98375 36.4880769,22.98375 C37.6034615,22.98375 38.0607692,22.60125 38.0607692,22.01625 C38.0607692,20.475 34.2573077,21.69 34.2573077,19.35 C34.2573077,18.3825 35.0826923,17.6625 36.5773077,17.6625 C37.3357692,17.6625 38.1611538,17.87625 38.6519231,18.21375 L38.3061538,18.855 C37.7930769,18.495 37.1796154,18.34875 36.5773077,18.34875 C35.5176923,18.34875 35.0492308,18.765 35.0492308,19.3275 C35.0492308,20.925 38.8526923,19.72125 38.8526923,21.99375 C38.8526923,23.0175 37.9603846,23.68125 36.4323077,23.68125 Z M40.7153846,16.41375 C40.3919231,16.41375 40.1353846,16.155 40.1353846,15.84 C40.1353846,15.53625 40.3919231,15.2775 40.7153846,15.2775 C41.0388462,15.2775 41.2953846,15.525 41.2953846,15.82875 C41.2953846,16.155 41.05,16.41375 40.7153846,16.41375 Z M40.3138462,23.625 L40.3138462,17.7075 L41.1057692,17.7075 L41.1057692,23.625 L40.3138462,23.625 Z M45.7123077,23.68125 C43.9946154,23.68125 42.7230769,22.42125 42.7230769,20.66625 C42.7230769,18.91125 43.9946154,17.6625 45.7123077,17.6625 C47.43,17.6625 48.6903846,18.91125 48.6903846,20.66625 C48.6903846,22.42125 47.43,23.68125 45.7123077,23.68125 Z M45.7123077,22.9725 C46.9615385,22.9725 47.8873077,22.05 47.8873077,20.66625 C47.8873077,19.2825 46.9615385,18.36 45.7123077,18.36 C44.4630769,18.36 43.5261538,19.2825 43.5261538,20.66625 C43.5261538,22.05 44.4630769,22.9725 45.7123077,22.9725 Z M53.2969231,17.6625 C54.7246154,17.6625 55.7061538,18.495 55.7061538,20.19375 L55.7061538,23.625 L54.9142308,23.625 L54.9142308,20.2725 C54.9142308,19.02375 54.2673077,18.3825 53.1519231,18.3825 C51.8915385,18.3825 51.0996154,19.17 51.0996154,20.52 L51.0996154,23.625 L50.3076923,23.625 L50.3076923,17.7075 L51.0661538,17.7075 L51.0661538,18.79875 C51.49,18.07875 52.2819231,17.6625 53.2969231,17.6625 Z M59.9111538,17.6625 C61.4280769,17.6625 62.2869231,18.4275 62.2869231,19.9575 L62.2869231,23.625 L61.5284615,23.625 L61.5284615,22.7025 C61.1715385,23.31 60.48,23.68125 59.5096154,23.68125 C58.1823077,23.68125 57.3680769,22.98375 57.3680769,21.96 C57.3680769,21.04875 57.9480769,20.28375 59.6323077,20.28375 L61.495,20.28375 L61.495,19.92375 C61.495,18.91125 60.9261538,18.36 59.8330769,18.36 C59.0746154,18.36 58.3607692,18.63 57.8811538,19.0575 L57.5242308,18.46125 C58.1153846,17.955 58.9853846,17.6625 59.9111538,17.6625 Z M59.6323077,23.05125 C60.5246154,23.05125 61.1826923,22.62375 61.495,21.8475 L61.495,20.88 L59.6546154,20.88 C58.5169231,20.88 58.1488462,21.33 58.1488462,21.9375 C58.1488462,22.62375 58.6953846,23.05125 59.6323077,23.05125 Z M64.4396154,23.625 L64.4396154,15.2775 L65.2315385,15.2775 L65.2315385,23.625 L64.4396154,23.625 Z M72.4146154,17.6625 C73.9315385,17.6625 74.7903846,18.4275 74.7903846,19.9575 L74.7903846,23.625 L74.0319231,23.625 L74.0319231,22.7025 C73.675,23.31 72.9834615,23.68125 72.0130769,23.68125 C70.6857692,23.68125 69.8715385,22.98375 69.8715385,21.96 C69.8715385,21.04875 70.4515385,20.28375 72.1357692,20.28375 L73.9984615,20.28375 L73.9984615,19.92375 C73.9984615,18.91125 73.4296154,18.36 72.3365385,18.36 C71.5780769,18.36 70.8642308,18.63 70.3846154,19.0575 L70.0276923,18.46125 C70.6188462,17.955 71.4888462,17.6625 72.4146154,17.6625 Z M72.1357692,23.05125 C73.0280769,23.05125 73.6861538,22.62375 73.9984615,21.8475 L73.9984615,20.88 L72.1580769,20.88 C71.0203846,20.88 70.6523077,21.33 70.6523077,21.9375 C70.6523077,22.62375 71.1988462,23.05125 72.1357692,23.05125 Z M81.5273077,15.2775 L82.3192308,15.2775 L82.3192308,23.625 L81.5607692,23.625 L81.5607692,22.455 C81.0811538,23.25375 80.2669231,23.68125 79.2965385,23.68125 C77.6234615,23.68125 76.3742308,22.455 76.3742308,20.66625 C76.3742308,18.8775 77.6234615,17.6625 79.2965385,17.6625 C80.2334615,17.6625 81.0365385,18.0675 81.5273077,18.8325 L81.5273077,15.2775 Z M79.3634615,22.9725 C80.6015385,22.9725 81.5384615,22.05 81.5384615,20.66625 C81.5384615,19.2825 80.6015385,18.36 79.3634615,18.36 C78.1142308,18.36 77.1773077,19.2825 77.1773077,20.66625 C77.1773077,22.05 78.1142308,22.9725 79.3634615,22.9725 Z M91.8446154,17.6625 C93.2723077,17.6625 94.2092308,18.495 94.2092308,20.19375 L94.2092308,23.625 L93.4173077,23.625 L93.4173077,20.2725 C93.4173077,19.02375 92.7926923,18.3825 91.7330769,18.3825 C90.5284615,18.3825 89.77,19.17 89.77,20.52 L89.77,23.625 L88.9780769,23.625 L88.9780769,20.2725 C88.9780769,19.02375 88.3534615,18.3825 87.2826923,18.3825 C86.0892308,18.3825 85.3196154,19.17 85.3196154,20.52 L85.3196154,23.625 L84.5276923,23.625 L84.5276923,17.7075 L85.2861538,17.7075 L85.2861538,18.7875 C85.6988462,18.07875 86.4573077,17.6625 87.4388462,17.6625 C88.4092308,17.6625 89.1676923,18.07875 89.5246154,18.91125 C89.9484615,18.14625 90.785,17.6625 91.8446154,17.6625 Z M96.7634615,16.41375 C96.44,16.41375 96.1834615,16.155 96.1834615,15.84 C96.1834615,15.53625 96.44,15.2775 96.7634615,15.2775 C97.0869231,15.2775 97.3434615,15.525 97.3434615,15.82875 C97.3434615,16.155 97.0980769,16.41375 96.7634615,16.41375 Z M96.3619231,23.625 L96.3619231,17.7075 L97.1538462,17.7075 L97.1538462,23.625 L96.3619231,23.625 Z M102.351538,17.6625 C103.779231,17.6625 104.760769,18.495 104.760769,20.19375 L104.760769,23.625 L103.968846,23.625 L103.968846,20.2725 C103.968846,19.02375 103.321923,18.3825 102.206538,18.3825 C100.946154,18.3825 100.154231,19.17 100.154231,20.52 L100.154231,23.625 L99.3623077,23.625 L99.3623077,17.7075 L100.120769,17.7075 L100.120769,18.79875 C100.544615,18.07875 101.336538,17.6625 102.351538,17.6625 Z" id="professional-admin" fill="#628690" opacity="0.496886322"></path>
                </g>
            </g>
        </g>
    </g>
</svg>